<svg width="20" height="20" viewBox="0 0 20 20" fill="none" xmlns="http://www.w3.org/2000/svg">
<path d="M10 1.8018C12.6701 1.8018 12.9864 1.81198 14.0408 1.86009C15.0158 1.90458 15.5453 2.06748 15.8977 2.20442C16.3321 2.36473 16.725 2.62034 17.0475 2.95246C17.3797 3.27503 17.6353 3.66793 17.7956 4.10229C17.9325 4.45466 18.0954 4.98417 18.1399 5.95914C18.188 7.01362 18.1982 7.32988 18.1982 10C18.1982 12.6701 18.188 12.9864 18.1399 14.0409C18.0954 15.0158 17.9325 15.5453 17.7956 15.8977C17.6292 16.329 17.3744 16.7207 17.0475 17.0475C16.7207 17.3744 16.329 17.6292 15.8977 17.7956C15.5453 17.9325 15.0158 18.0954 14.0408 18.1399C12.9865 18.188 12.6703 18.1982 10 18.1982C7.3297 18.1982 7.01346 18.188 5.95915 18.1399C4.98416 18.0954 4.45466 17.9325 4.10228 17.7956C3.66794 17.6353 3.27504 17.3797 2.95248 17.0475C2.62035 16.725 2.36473 16.3321 2.20443 15.8977C2.06748 15.5453 1.90458 15.0158 1.86009 14.0409C1.81198 12.9864 1.8018 12.6701 1.8018 10C1.8018 7.32988 1.81199 7.01361 1.86009 5.95915C1.90458 4.98417 2.06748 4.45466 2.20443 4.10228C2.36473 3.66794 2.62034 3.27504 2.95246 2.95248C3.27503 2.62035 3.66793 2.36473 4.10229 2.20443C4.45466 2.06748 4.98417 1.90458 5.95914 1.86009C7.01362 1.81198 7.32988 1.8018 10 1.8018L10 1.8018ZM10 3.96951e-07C7.28416 0 6.94362 0.0115028 5.87702 0.0601658C4.81261 0.108735 4.08571 0.27778 3.44961 0.524987C2.78235 0.776079 2.1779 1.1697 1.6784 1.6784C1.1697 2.1779 0.776079 2.78235 0.524987 3.44961C0.27778 4.08571 0.108735 4.81261 0.0601658 5.87702C0.0115028 6.94362 0 7.28415 0 10C0 12.7158 0.0115028 13.0564 0.0601658 14.123C0.108735 15.1874 0.27778 15.9143 0.524987 16.5504C0.776081 17.2176 1.1697 17.8221 1.6784 18.3216C2.1779 18.8303 2.78235 19.2239 3.44961 19.475C4.08571 19.7222 4.81261 19.8913 5.87702 19.9398C6.94362 19.9885 7.28416 20 10 20C12.7158 20 13.0564 19.9885 14.123 19.9398C15.1874 19.8913 15.9143 19.7222 16.5504 19.475C17.2147 19.2181 17.818 18.8252 18.3216 18.3216C18.8252 17.818 19.2181 17.2147 19.475 16.5504C19.7222 15.9143 19.8913 15.1874 19.9398 14.123C19.9885 13.0564 20 12.7158 20 10C20 7.28416 19.9885 6.94362 19.9398 5.87702C19.8913 4.81261 19.7222 4.08571 19.475 3.44961C19.2239 2.78235 18.8303 2.1779 18.3216 1.6784C17.8221 1.1697 17.2176 0.776079 16.5504 0.524987C15.9143 0.27778 15.1874 0.108735 14.123 0.0601658C13.0564 0.0115028 12.7158 0 10 0L10 3.96951e-07Z" fill="#707070"/>
<path d="M10.0004 4.86475C8.98474 4.86475 7.99191 5.16592 7.14744 5.73017C6.30297 6.29443 5.64479 7.09643 5.25613 8.03475C4.86746 8.97307 4.76577 10.0056 4.96391 11.0017C5.16205 11.9978 5.65112 12.9128 6.36928 13.631C7.08744 14.3491 8.00244 14.8382 8.99856 15.0363C9.99467 15.2345 11.0272 15.1328 11.9655 14.7441C12.9038 14.3555 13.7058 13.6973 14.2701 12.8528C14.8343 12.0083 15.1355 11.0155 15.1355 9.99988C15.1355 9.32553 15.0027 8.65777 14.7446 8.03475C14.4866 7.41173 14.1083 6.84563 13.6315 6.36879C13.1546 5.89195 12.5885 5.5137 11.9655 5.25563C11.3425 4.99757 10.6747 4.86475 10.0004 4.86475ZM10.0004 13.3332C9.3411 13.3332 8.69663 13.1377 8.14847 12.7714C7.60031 12.4052 7.17306 11.8846 6.92077 11.2755C6.66848 10.6664 6.60247 9.99618 6.73109 9.34958C6.8597 8.70297 7.17717 8.10903 7.64335 7.64286C8.10952 7.17668 8.70347 6.85921 9.35007 6.73059C9.99667 6.60198 10.6669 6.66799 11.276 6.92028C11.8851 7.17257 12.4057 7.59982 12.7719 8.14798C13.1382 8.69614 13.3337 9.34061 13.3337 9.99988C13.3337 10.8839 12.9825 11.7318 12.3574 12.3569C11.7323 12.982 10.8844 13.3332 10.0004 13.3332V13.3332Z" fill="#707070"/>
<path d="M15.3387 5.86191C16.0014 5.86191 16.5387 5.32466 16.5387 4.66191C16.5387 3.99917 16.0014 3.46191 15.3387 3.46191C14.6759 3.46191 14.1387 3.99917 14.1387 4.66191C14.1387 5.32466 14.6759 5.86191 15.3387 5.86191Z" fill="#707070"/>
</svg>
