<svg width="18" height="18" viewBox="0 0 18 18" fill="none" xmlns="http://www.w3.org/2000/svg">
<path d="M16.7143 0C17.0625 0 17.3571 0.133929 17.5982 0.401786C17.8661 0.642857 18 0.9375 18 1.28571V16.7143C18 17.0625 17.8661 17.3571 17.5982 17.5982C17.3571 17.8661 17.0625 18 16.7143 18H1.28571C0.9375 18 0.629464 17.8661 0.361607 17.5982C0.120536 17.3571 0 17.0625 0 16.7143V1.28571C0 0.9375 0.120536 0.642857 0.361607 0.401786C0.629464 0.133929 0.9375 0 1.28571 0H16.7143ZM5.42411 15.4286H5.46429V6.83036H2.77232V15.4286H5.42411ZM3.01339 5.22321C3.30804 5.51786 3.66964 5.66518 4.09821 5.66518C4.52679 5.66518 4.88839 5.51786 5.18304 5.22321C5.50446 4.90179 5.66518 4.54018 5.66518 4.13839C5.66518 3.70982 5.50446 3.34821 5.18304 3.05357C4.88839 2.73214 4.52679 2.57143 4.09821 2.57143C3.66964 2.57143 3.30804 2.73214 3.01339 3.05357C2.71875 3.34821 2.57143 3.70982 2.57143 4.13839C2.57143 4.54018 2.71875 4.90179 3.01339 5.22321ZM15.4286 15.4286V10.7277C15.4286 10.0848 15.3884 9.53571 15.308 9.08036C15.2277 8.625 15.0804 8.20982 14.8661 7.83482C14.6518 7.43304 14.317 7.13839 13.8616 6.95089C13.433 6.73661 12.8973 6.62946 12.2545 6.62946C11.6384 6.62946 11.1027 6.76339 10.6473 7.03125C10.2188 7.29911 9.91071 7.62054 9.72321 7.99554H9.68304V6.83036H7.11161V15.4286H9.80357V11.1696C9.80357 10.5 9.91071 9.96429 10.125 9.5625C10.3393 9.16071 10.7545 8.95982 11.3705 8.95982C11.692 8.95982 11.9598 9.02679 12.1741 9.16071C12.3884 9.29464 12.5223 9.49554 12.5759 9.76339C12.6562 10.0312 12.7098 10.2723 12.7366 10.4866C12.7634 10.6741 12.7768 10.9286 12.7768 11.25V15.4286H15.4286Z" fill="#707070"/>
</svg>
