<svg width="22" height="22" viewBox="0 0 22 22" fill="none" xmlns="http://www.w3.org/2000/svg">
<path d="M11 22C17.0751 22 22 17.0751 22 11C22 4.92487 17.0751 0 11 0C4.92487 0 0 4.92487 0 11C0 17.0751 4.92487 22 11 22Z" fill="#707070"/>
<path d="M8.98709 16.974C13.8656 16.974 16.5331 12.8903 16.5331 9.35101C16.5331 9.23433 16.5331 9.11765 16.5276 9.00653C17.0446 8.62871 17.4956 8.15644 17.8531 7.6175C17.3801 7.82863 16.8686 7.97309 16.3296 8.03977C16.8796 7.7064 17.2976 7.18412 17.4956 6.55628C16.9841 6.86187 16.4176 7.08411 15.8126 7.20635C15.3286 6.68407 14.6411 6.36182 13.8766 6.36182C12.4136 6.36182 11.2256 7.56194 11.2256 9.03987C11.2256 9.251 11.2476 9.45658 11.2971 9.65104C9.0916 9.53992 7.13909 8.47314 5.83009 6.85076C5.60459 7.24524 5.47259 7.7064 5.47259 8.19534C5.47259 9.12321 5.94009 9.94552 6.65509 10.4233C6.22059 10.4122 5.81359 10.29 5.45609 10.09C5.45609 10.1011 5.45609 10.1122 5.45609 10.1233C5.45609 11.4234 6.36909 12.5013 7.58459 12.7514C7.36459 12.8125 7.12809 12.8458 6.88609 12.8458C6.71559 12.8458 6.55059 12.8291 6.38559 12.7958C6.72109 13.8626 7.7001 14.6349 8.8606 14.6571C7.9531 15.3738 6.80909 15.8017 5.56609 15.8017C5.35159 15.8017 5.14259 15.7906 4.93359 15.7628C6.09409 16.5295 7.49109 16.974 8.98709 16.974Z" fill="#111111"/>
</svg>
